<svg width="188" height="39" viewBox="0 0 188 39" fill="none" xmlns="http://www.w3.org/2000/svg">
<g clip-path="url(#clip0_933_11220)">
<path d="M157.65 33.3119H159.917L160.106 31.0234H157.838L157.65 33.3119Z" fill="#F29341"/>
<path d="M22.169 24.7256L21.9757 26.6645H0.313911L0 30.4353H21.5986L20.9 38.1432H33.9981L34.6967 30.4353H56.4216L56.7355 26.6645H35.0738L35.2671 24.7256H54.4731L54.7162 21.9844C42.2669 22.9319 30.4072 23.8564 19.7017 24.7256H22.1709H22.169Z" fill="#f29341"/>
<path d="M55.1011 7.63335H36.3335L36.5421 5.78232H58.7245L59.0384 2.01149H36.9766L37.168 0H24.468L23.6756 7.63144H4.34905L2.83691 24.7243H19.6981C30.4036 23.8571 42.2633 22.9306 54.7126 21.9831L55.9816 7.63144H55.0992L55.1011 7.63335ZM42.1925 20.9554H15.7455L16.0594 17.9391H42.5064L42.1925 20.9554ZM42.8223 14.1683H16.3753L16.6279 11.4042H43.0749L42.8223 14.1683Z" fill="#F29341"/>
<path d="M94.3029 8.39172L92.6032 0H84.543L86.2427 8.39172H94.3029Z" fill="#f29341"/>
<path d="M65.8413 10.2031L65.5273 18.0504H69.5565L69.3172 20.8795C72.6822 20.6274 76.074 20.3752 79.4791 20.123L80.4496 10.2031H65.8413Z" fill="#f29341"/>
<path d="M80.9542 1.78035L67.1 0L66.7861 4.83102L80.6384 6.61137L80.9542 1.78035Z" fill="#f29341"/>
<path d="M123.08 0H115.02L111.431 8.39172H119.491L123.08 0Z" fill="#f29341"/>
<path d="M68.285 33.13L62.2863 33.3095L61.9092 38.1406H77.3903L123.895 38.366L124.272 33.5349L78.2976 32.2417L79.4824 20.125C76.0773 20.3772 72.6855 20.6293 69.3205 20.8815L68.2869 33.1281L68.285 33.13Z" fill="#f29341"/>
<path d="M122.387 13.9849L122.701 10.1702H108.343L109.226 0H98.143L97.2606 10.1702H83.1557L82.8418 13.9849H96.9467L96.8836 14.176L87.6902 19.5208C96.4682 18.8752 105.288 18.2333 113.978 17.6068L108.282 13.9849H122.387Z" fill="#f29341"/>
<path d="M82.3384 22.6314L81.835 28.9887L96.3801 20.534L95.5398 30.6678L106.691 30.962L107.463 20.1538L121.378 28.9906L121.882 22.6333L113.976 17.6094C105.286 18.2359 96.4663 18.8778 87.6882 19.5234L82.3365 22.6333L82.3384 22.6314Z" fill="#f29341"/>
<path d="M140.144 7.37356H151.73L151.856 5.59321H167.094L166.97 7.37356H178.556L178.68 5.59321H187.686L188 1.78035H178.996L179.122 0H167.536L167.41 1.78035H152.172L152.298 0H140.71L140.584 1.78035H131.33L131.014 5.59321H140.27L140.144 7.37356Z" fill="#f29341"/>
<path d="M186.974 12.4472C180.606 12.8885 173.499 13.3832 165.851 13.92H168.481L172.006 29.4943L169.614 31.4657L169.11 37.823L173.203 34.4533L174.022 38.1401H184.852L182.27 26.9517L186.048 23.8361L186.551 17.4788L181.137 21.9278L179.31 13.9181H186.867L186.974 12.4453V12.4472Z" fill="#f29341"/>
<path d="M187.181 9.60044H185.732L185.921 7.375H181.387L181.197 9.60044H178.301L177.987 8.1391H167.158L167.471 9.60044H141.34L140.521 15.7037H138.255L138.821 9.60044H131.517L130.951 15.7037H130.258L130.204 16.4449C137.395 15.931 144.412 15.4343 151.148 14.9587L151.29 13.9252H165.85C173.499 13.3904 180.606 12.8937 186.974 12.4524L187.181 9.60235V9.60044Z" fill="#f29341"/>
<path d="M129.944 20.0249H139.893L139.39 23.5856H129.504L129.19 27.9085H129.946L128.246 38.1436H135.55L137.25 27.9085H138.823L137.374 38.1436H147.954L151.148 14.957C144.412 15.4327 137.395 15.9293 130.204 16.4432L129.944 20.0249Z" fill="#f29341"/>
<path d="M167.536 31.0242L168.292 21.1081H165.523L165.712 18.9476H167.349L167.663 15.1328H152.677L150.788 37.1274H167.412L167.726 33.3127H164.704L164.893 31.0242H167.538H167.536ZM158.91 18.9457H160.925L160.736 21.1062H158.72L158.91 18.9457ZM159.916 33.3127H157.65L157.84 31.0242H160.106L159.916 33.3127ZM162.812 27.2094H158.217L158.406 24.9209H162.941L162.814 27.2094H162.812Z" fill="#f29341"/>
<path d="M2.0459 38.1419H15.8618L16.2752 33.7617H2.45934L2.0459 38.1419Z" fill="#f29341"/>
<path d="M39.4951 38.1412H57.5373L57.9871 33.3828L39.8875 34.0036L39.4951 38.1412Z" fill="#f29341"/>
</g>
<defs>
<clipPath id="clip0_933_11220">
<rect width="188" height="38.3673" fill="#f29341"/>
</clipPath>
</defs>
</svg>
