<svg width="69" height="69" viewBox="0 0 69 69" fill="none" xmlns="http://www.w3.org/2000/svg">
<rect width="69" height="69" fill="#F29441"/>
<path d="M27.169 39.7256L26.9757 41.6645H5.31391L5 45.4353H26.5986L25.8999 53.1432H38.9981L39.6967 45.4353H61.4216L61.7355 41.6645H40.0738L40.2671 39.7256H59.4731L59.7162 36.9844C47.2669 37.9319 35.4072 38.8564 24.7017 39.7256H27.1709H27.169Z" fill="white"/>
<path d="M60.1011 22.6334H41.3335L41.5421 20.7823H63.7245L64.0384 17.0115H41.9766L42.168 15H29.468L28.6756 22.6314H9.34905L7.83691 39.7243H24.6981C35.4036 38.8571 47.2633 37.9306 59.7126 36.9831L60.9816 22.6314H60.0992L60.1011 22.6334ZM47.1925 35.9554H20.7455L21.0594 32.9391H47.5064L47.1925 35.9554ZM47.8223 29.1683H21.3753L21.6279 26.4042H48.0749L47.8223 29.1683Z" fill="white"/>
<path d="M7.0459 53.1439H20.8618L21.2752 48.7637H7.45934L7.0459 53.1439Z" fill="white"/>
<path d="M44.4951 53.1432H62.5373L62.9871 48.3848L44.8875 49.0056L44.4951 53.1432Z" fill="white"/>
</svg>
